<?xml version="1.0" encoding="utf-8"?>
<!-- Generator: Adobe Illustrator 28.0.0, SVG Export Plug-In . SVG Version: 6.00 Build 0)  -->
<svg version="1.1" id="Capa_1" xmlns="http://www.w3.org/2000/svg" xmlns:xlink="http://www.w3.org/1999/xlink" x="0px" y="0px"
	 viewBox="0 0 391.61 100.28" style="enable-background:new 0 0 391.61 100.28;" xml:space="preserve">
<style type="text/css">
	.st0{fill:#267BE0;}
</style>
<path class="st0" d="M96.76,0.18c-1.06,7.52-2.2,14.44-3,21.4c-1.65,14.45-3.26,28.91-4.62,43.39c-1.1,11.71-5.36,21.33-16.8,26.12
	c-3.9,1.63-8.28,2.41-12.51,2.92c-15.66,1.89-31.35,3.51-47.03,5.23c-2.95,0.32-5.9,0.63-8.85,0.97c-3.17,0.37-4.23-1.18-3.89-4.12
	C1.09,87.2,2.12,78.3,3.12,69.4c1.67-14.85,3.33-29.7,4.96-44.56C9.95,7.81,21.6-0.43,35.5,0.02C55.62,0.67,75.77,0.18,96.76,0.18z
	 M26.73,35.21c12.31,0,24.28,0.33,36.23-0.11c9.18-0.33,15.74-7.8,14.66-15.94c-12.59,0-25.23,0.33-37.85-0.11
	C30.72,18.74,26.22,22.01,26.73,35.21z M58.67,50.29c-8.18,0-16.28-0.3-24.35,0.11c-5.19,0.26-9.6,3.34-10.57,8.42
	c-1.84,9.63-2.67,19.46-4.1,30.69c4.01-1.99,6.91-3.22,9.59-4.82c8.07-4.82,8.15-13.73,10.07-21.33
	C48.92,62.87,56.22,57.89,58.67,50.29z"/>
<g>
	<path d="M114.7,54.47v-39.9h30.15v7.41h-20.92v32.49H114.7z M123.25,39.93v-7.41h19.15v7.41H123.25z"/>
	<path d="M168.85,55.15c-5.66,0-10.09-1.58-13.28-4.73c-3.19-3.15-4.79-7.66-4.79-13.51V14.57h9.23v22c0,3.8,0.78,6.54,2.34,8.21
		c1.56,1.67,3.74,2.51,6.55,2.51s5-0.84,6.56-2.51c1.56-1.67,2.34-4.41,2.34-8.21v-22h9.12v22.34c0,5.85-1.6,10.36-4.79,13.51
		C178.94,53.57,174.51,55.15,168.85,55.15z"/>
	<path d="M203.51,54.47V22.09h-12.77v-7.52h34.77v7.52h-12.77v32.38H203.51z"/>
	<path d="M230.47,54.47v-39.9h17.27c3.57,0,6.65,0.58,9.23,1.74c2.58,1.16,4.58,2.82,5.98,4.99c1.41,2.17,2.11,4.75,2.11,7.75
		c0,2.96-0.7,5.53-2.11,7.69c-1.41,2.17-3.4,3.83-5.98,4.99c-2.58,1.16-5.66,1.74-9.23,1.74H235.6l4.1-4.16v15.16H230.47z
		 M239.7,40.33l-4.1-4.39h11.63c2.85,0,4.98-0.61,6.38-1.82c1.41-1.22,2.11-2.91,2.11-5.07c0-2.2-0.7-3.91-2.11-5.13
		c-1.41-1.22-3.53-1.82-6.38-1.82H235.6l4.1-4.39V40.33z"/>
	<path d="M271.62,54.47v-39.9h30.15v7.41H280.8v25.08h21.72v7.41H271.62z M280.12,37.82v-7.18h19.21v7.18H280.12z"/>
	<path d="M304.63,54.47l17.78-39.9h9.12l17.84,39.9h-9.69l-14.59-35.23h3.65l-14.65,35.23H304.63z M313.52,45.92l2.45-7.01h20.52
		l2.51,7.01H313.52z"/>
	<path d="M353.53,54.47v-39.9h9.18v39.9H353.53z M361.8,45.35l-0.51-10.66l19.09-20.12h10.26l-17.21,18.52l-5.13,5.47L361.8,45.35z
		 M380.83,54.47l-14.19-17.38l6.04-6.56l18.92,23.94H380.83z"/>
</g>
<g>
	<path d="M114.63,81.85v-11.2H119c0.98,0,1.82,0.15,2.51,0.46s1.23,0.76,1.6,1.34c0.37,0.59,0.56,1.29,0.56,2.1
		s-0.19,1.51-0.56,2.09c-0.37,0.58-0.91,1.03-1.6,1.34c-0.69,0.31-1.53,0.47-2.51,0.47h-3.49l0.72-0.75v4.14H114.63z M116.23,77.86
		l-0.72-0.8h3.44c1.02,0,1.8-0.22,2.33-0.66s0.79-1.06,0.79-1.86c0-0.8-0.26-1.42-0.79-1.86s-1.3-0.66-2.33-0.66h-3.44l0.72-0.8
		V77.86z"/>
	<path d="M125.65,81.85v-8.48h1.47v2.3l-0.14-0.58c0.23-0.59,0.63-1.03,1.18-1.34c0.55-0.31,1.24-0.46,2.05-0.46v1.49
		c-0.06-0.01-0.12-0.02-0.18-0.02s-0.12,0-0.17,0c-0.82,0-1.47,0.25-1.95,0.74c-0.48,0.49-0.72,1.2-0.72,2.13v4.22H125.65z"/>
	<path d="M135.8,81.94c-0.91,0-1.7-0.19-2.39-0.56c-0.69-0.37-1.22-0.89-1.6-1.54c-0.38-0.65-0.57-1.4-0.57-2.24
		c0-0.84,0.18-1.59,0.55-2.24c0.37-0.65,0.88-1.16,1.52-1.53c0.65-0.37,1.37-0.55,2.18-0.55c0.82,0,1.55,0.18,2.18,0.54
		c0.63,0.36,1.12,0.87,1.48,1.53c0.36,0.66,0.54,1.42,0.54,2.3c0,0.06,0,0.14-0.01,0.22c-0.01,0.09-0.01,0.17-0.02,0.24h-7.22v-1.1
		h6.42l-0.62,0.38c0.01-0.54-0.1-1.03-0.34-1.46c-0.24-0.43-0.56-0.76-0.97-1c-0.41-0.24-0.89-0.36-1.43-0.36
		c-0.53,0-1.01,0.12-1.42,0.36c-0.42,0.24-0.74,0.58-0.98,1.01c-0.24,0.43-0.35,0.93-0.35,1.48v0.26c0,0.57,0.13,1.07,0.39,1.51
		c0.26,0.44,0.63,0.79,1.1,1.03c0.47,0.25,1.01,0.37,1.62,0.37c0.5,0,0.96-0.08,1.37-0.26c0.41-0.17,0.77-0.43,1.08-0.77l0.85,0.99
		c-0.38,0.45-0.86,0.79-1.43,1.02C137.14,81.83,136.5,81.94,135.8,81.94z"/>
	<path d="M145.32,81.94c-0.82,0-1.55-0.18-2.2-0.54c-0.65-0.36-1.15-0.87-1.53-1.52c-0.37-0.65-0.56-1.41-0.56-2.27
		c0-0.86,0.19-1.62,0.56-2.26c0.37-0.65,0.88-1.15,1.53-1.51c0.65-0.36,1.38-0.54,2.2-0.54c0.71,0,1.36,0.16,1.94,0.48
		c0.58,0.32,1.04,0.8,1.38,1.44c0.35,0.64,0.52,1.44,0.52,2.4c0,0.96-0.17,1.76-0.5,2.4c-0.34,0.64-0.79,1.12-1.37,1.45
		C146.71,81.78,146.05,81.94,145.32,81.94z M145.44,80.6c0.53,0,1.02-0.12,1.45-0.37c0.43-0.25,0.77-0.59,1.02-1.05
		c0.25-0.45,0.38-0.98,0.38-1.58c0-0.61-0.12-1.13-0.38-1.58c-0.25-0.44-0.59-0.79-1.02-1.03c-0.43-0.25-0.92-0.37-1.45-0.37
		c-0.54,0-1.03,0.12-1.46,0.37c-0.43,0.25-0.77,0.59-1.02,1.03c-0.26,0.44-0.38,0.97-0.38,1.58c0,0.6,0.13,1.12,0.38,1.58
		c0.26,0.45,0.6,0.8,1.02,1.05C144.42,80.48,144.9,80.6,145.44,80.6z M148.34,81.85v-2.29l0.1-1.97l-0.16-1.97v-5.65h1.54v11.87
		H148.34z"/>
	<path d="M153.49,71.74c-0.3,0-0.55-0.1-0.74-0.29c-0.2-0.19-0.3-0.43-0.3-0.7c0-0.29,0.1-0.53,0.3-0.72
		c0.2-0.19,0.44-0.29,0.74-0.29s0.55,0.09,0.74,0.28c0.2,0.19,0.3,0.42,0.3,0.7c0,0.29-0.1,0.53-0.29,0.73
		C154.05,71.64,153.8,71.74,153.49,71.74z M152.73,81.85v-8.48h1.54v8.48H152.73z"/>
	<path d="M160.89,81.94c-0.86,0-1.63-0.19-2.31-0.56s-1.21-0.89-1.59-1.54c-0.38-0.65-0.58-1.4-0.58-2.24
		c0-0.84,0.19-1.59,0.58-2.24c0.38-0.65,0.91-1.16,1.59-1.53c0.68-0.37,1.45-0.55,2.31-0.55c0.77,0,1.45,0.15,2.06,0.46
		s1.07,0.75,1.4,1.35l-1.17,0.75c-0.28-0.42-0.62-0.72-1.02-0.92c-0.4-0.2-0.83-0.3-1.29-0.3c-0.55,0-1.05,0.12-1.49,0.37
		c-0.44,0.25-0.78,0.59-1.04,1.03c-0.26,0.44-0.38,0.97-0.38,1.58c0,0.61,0.13,1.14,0.38,1.58c0.26,0.45,0.6,0.79,1.04,1.04
		c0.44,0.25,0.93,0.37,1.49,0.37c0.46,0,0.89-0.1,1.29-0.3c0.4-0.2,0.74-0.5,1.02-0.92l1.17,0.74c-0.33,0.59-0.8,1.04-1.4,1.35
		C162.34,81.79,161.65,81.94,160.89,81.94z"/>
	<path d="M165.22,74.63v-1.26h5.41v1.26H165.22z M169.35,81.94c-0.85,0-1.51-0.23-1.98-0.69s-0.7-1.11-0.7-1.97v-7.78h1.54v7.71
		c0,0.46,0.11,0.81,0.34,1.06s0.56,0.37,0.98,0.37c0.48,0,0.88-0.13,1.2-0.4l0.48,1.1c-0.23,0.2-0.51,0.35-0.84,0.45
		C170.04,81.9,169.7,81.94,169.35,81.94z"/>
	<path d="M177.59,81.85v-11.2h4.37c0.98,0,1.82,0.15,2.51,0.46s1.23,0.76,1.6,1.34c0.37,0.59,0.56,1.29,0.56,2.1
		s-0.19,1.51-0.56,2.09c-0.37,0.58-0.91,1.03-1.6,1.34c-0.69,0.31-1.53,0.47-2.51,0.47h-3.49l0.72-0.75v4.14H177.59z M179.19,77.86
		l-0.72-0.8h3.44c1.02,0,1.8-0.22,2.33-0.66s0.79-1.06,0.79-1.86c0-0.8-0.26-1.42-0.79-1.86s-1.3-0.66-2.33-0.66h-3.44l0.72-0.8
		V77.86z"/>
	<path d="M192.36,81.94c-0.85,0-1.61-0.19-2.27-0.56c-0.66-0.37-1.18-0.89-1.57-1.54c-0.38-0.66-0.58-1.4-0.58-2.23
		c0-0.84,0.19-1.59,0.58-2.24c0.38-0.65,0.91-1.16,1.57-1.53c0.66-0.37,1.42-0.55,2.27-0.55c0.84,0,1.6,0.18,2.26,0.55
		c0.67,0.37,1.19,0.87,1.57,1.52s0.57,1.39,0.57,2.25c0,0.84-0.19,1.59-0.57,2.24c-0.38,0.65-0.9,1.16-1.57,1.54
		C193.95,81.76,193.2,81.94,192.36,81.94z M192.36,80.6c0.54,0,1.03-0.12,1.46-0.37c0.43-0.25,0.77-0.59,1.02-1.05
		c0.25-0.45,0.37-0.98,0.37-1.58c0-0.61-0.12-1.13-0.37-1.58c-0.25-0.44-0.58-0.79-1.02-1.03c-0.43-0.25-0.92-0.37-1.46-0.37
		s-1.03,0.12-1.46,0.37c-0.43,0.25-0.77,0.59-1.02,1.03c-0.26,0.44-0.38,0.97-0.38,1.58c0,0.6,0.13,1.12,0.38,1.58
		c0.26,0.45,0.6,0.8,1.02,1.05C191.33,80.48,191.81,80.6,192.36,80.6z"/>
	<path d="M197.67,74.63v-1.26h5.41v1.26H197.67z M201.8,81.94c-0.85,0-1.51-0.23-1.98-0.69s-0.7-1.11-0.7-1.97v-7.78h1.54v7.71
		c0,0.46,0.11,0.81,0.34,1.06s0.56,0.37,0.98,0.37c0.48,0,0.88-0.13,1.2-0.4l0.48,1.1c-0.23,0.2-0.51,0.35-0.84,0.45
		C202.49,81.9,202.15,81.94,201.8,81.94z"/>
	<path d="M209,81.94c-0.91,0-1.7-0.19-2.39-0.56c-0.69-0.37-1.22-0.89-1.6-1.54c-0.38-0.65-0.57-1.4-0.57-2.24
		c0-0.84,0.18-1.59,0.55-2.24c0.37-0.65,0.88-1.16,1.52-1.53c0.65-0.37,1.37-0.55,2.18-0.55c0.82,0,1.55,0.18,2.18,0.54
		c0.63,0.36,1.12,0.87,1.48,1.53c0.36,0.66,0.54,1.42,0.54,2.3c0,0.06,0,0.14-0.01,0.22c-0.01,0.09-0.01,0.17-0.02,0.24h-7.22v-1.1
		h6.42l-0.62,0.38c0.01-0.54-0.1-1.03-0.34-1.46c-0.24-0.43-0.56-0.76-0.97-1c-0.41-0.24-0.89-0.36-1.43-0.36
		c-0.53,0-1.01,0.12-1.42,0.36c-0.42,0.24-0.74,0.58-0.98,1.01c-0.24,0.43-0.35,0.93-0.35,1.48v0.26c0,0.57,0.13,1.07,0.39,1.51
		c0.26,0.44,0.63,0.79,1.1,1.03c0.47,0.25,1.01,0.37,1.62,0.37c0.5,0,0.96-0.08,1.37-0.26c0.41-0.17,0.77-0.43,1.08-0.77l0.85,0.99
		c-0.38,0.45-0.86,0.79-1.43,1.02C210.34,81.83,209.7,81.94,209,81.94z"/>
	<path d="M215.01,81.85v-8.48h1.47v2.29l-0.24-0.61c0.28-0.55,0.7-0.99,1.28-1.3c0.58-0.31,1.25-0.46,2.02-0.46
		c0.69,0,1.3,0.13,1.83,0.4c0.53,0.27,0.94,0.67,1.24,1.22s0.45,1.23,0.45,2.06v4.88h-1.54v-4.7c0-0.82-0.2-1.44-0.6-1.86
		c-0.4-0.42-0.96-0.62-1.69-0.62c-0.54,0-1.02,0.11-1.42,0.32s-0.72,0.53-0.94,0.94c-0.22,0.42-0.33,0.93-0.33,1.55v4.37H215.01z"/>
	<path d="M229.61,81.94c-0.86,0-1.63-0.19-2.31-0.56s-1.21-0.89-1.59-1.54c-0.38-0.65-0.58-1.4-0.58-2.24
		c0-0.84,0.19-1.59,0.58-2.24c0.38-0.65,0.91-1.16,1.59-1.53c0.68-0.37,1.45-0.55,2.31-0.55c0.77,0,1.45,0.15,2.06,0.46
		s1.07,0.75,1.4,1.35l-1.17,0.75c-0.28-0.42-0.62-0.72-1.02-0.92c-0.4-0.2-0.83-0.3-1.29-0.3c-0.55,0-1.05,0.12-1.49,0.37
		c-0.44,0.25-0.78,0.59-1.04,1.03c-0.26,0.44-0.38,0.97-0.38,1.58c0,0.61,0.13,1.14,0.38,1.58c0.26,0.45,0.6,0.79,1.04,1.04
		c0.44,0.25,0.93,0.37,1.49,0.37c0.46,0,0.89-0.1,1.29-0.3c0.4-0.2,0.74-0.5,1.02-0.92l1.17,0.74c-0.33,0.59-0.8,1.04-1.4,1.35
		C231.06,81.79,230.37,81.94,229.61,81.94z"/>
	<path d="M235.7,71.74c-0.3,0-0.55-0.1-0.74-0.29c-0.2-0.19-0.3-0.43-0.3-0.7c0-0.29,0.1-0.53,0.3-0.72
		c0.2-0.19,0.44-0.29,0.74-0.29s0.55,0.09,0.74,0.28c0.2,0.19,0.3,0.42,0.3,0.7c0,0.29-0.1,0.53-0.29,0.73
		C236.26,71.64,236.01,71.74,235.7,71.74z M234.93,81.85v-8.48h1.54v8.48H234.93z"/>
	<path d="M241.88,81.94c-0.63,0-1.18-0.11-1.66-0.32c-0.47-0.21-0.84-0.51-1.1-0.89c-0.26-0.38-0.38-0.81-0.38-1.29
		c0-0.46,0.11-0.87,0.33-1.25s0.58-0.67,1.07-0.9s1.17-0.34,2.01-0.34h2.69v1.1h-2.62c-0.77,0-1.29,0.13-1.55,0.38
		s-0.4,0.57-0.4,0.93c0,0.42,0.17,0.75,0.5,1c0.33,0.25,0.79,0.38,1.38,0.38c0.58,0,1.08-0.13,1.51-0.38
		c0.43-0.26,0.74-0.63,0.94-1.12l0.3,1.06c-0.2,0.5-0.56,0.9-1.07,1.19C243.3,81.8,242.66,81.94,241.88,81.94z M244.66,81.85v-1.79
		l-0.08-0.34v-3.06c0-0.65-0.19-1.15-0.57-1.51c-0.38-0.36-0.95-0.54-1.7-0.54c-0.5,0-0.99,0.08-1.47,0.25
		c-0.48,0.17-0.89,0.39-1.22,0.66l-0.64-1.15c0.44-0.35,0.96-0.62,1.58-0.81s1.26-0.28,1.93-0.28c1.16,0,2.06,0.28,2.69,0.85
		c0.63,0.57,0.94,1.43,0.94,2.59v5.12H244.66z"/>
	<path d="M248.96,81.85V69.98h1.54v11.87H248.96z"/>
	<path d="M253.8,81.94c-0.3,0-0.55-0.1-0.77-0.31c-0.21-0.21-0.32-0.47-0.32-0.79c0-0.32,0.11-0.58,0.32-0.78
		c0.21-0.2,0.47-0.3,0.77-0.3c0.29,0,0.54,0.1,0.74,0.3s0.31,0.46,0.31,0.78c0,0.32-0.1,0.58-0.31,0.79S254.08,81.94,253.8,81.94z"
		/>
	<path d="M261.59,81.85v-11.2h4.37c1.45,0,2.59,0.34,3.42,1.03s1.25,1.65,1.25,2.87c0,0.81-0.19,1.51-0.56,2.09
		c-0.37,0.58-0.91,1.03-1.6,1.34c-0.69,0.31-1.53,0.46-2.51,0.46h-3.49l0.72-0.74v4.14H261.59z M263.19,77.86l-0.72-0.78h3.44
		c1.02,0,1.8-0.22,2.33-0.66c0.53-0.44,0.79-1.06,0.79-1.86c0-0.8-0.26-1.42-0.79-1.86s-1.3-0.66-2.33-0.66h-3.44l0.72-0.8V77.86z
		 M269.08,81.85l-2.85-4.06h1.71l2.88,4.06H269.08z"/>
	<path d="M276.77,81.94c-0.91,0-1.7-0.19-2.39-0.56c-0.69-0.37-1.22-0.89-1.6-1.54c-0.38-0.65-0.57-1.4-0.57-2.24
		c0-0.84,0.18-1.59,0.55-2.24c0.37-0.65,0.88-1.16,1.52-1.53c0.65-0.37,1.37-0.55,2.18-0.55c0.82,0,1.55,0.18,2.18,0.54
		c0.63,0.36,1.12,0.87,1.48,1.53c0.36,0.66,0.54,1.42,0.54,2.3c0,0.06,0,0.14-0.01,0.22c-0.01,0.09-0.01,0.17-0.02,0.24h-7.22v-1.1
		h6.42l-0.62,0.38c0.01-0.54-0.1-1.03-0.34-1.46c-0.24-0.43-0.56-0.76-0.97-1c-0.41-0.24-0.89-0.36-1.43-0.36
		c-0.53,0-1.01,0.12-1.42,0.36c-0.42,0.24-0.74,0.58-0.98,1.01c-0.24,0.43-0.35,0.93-0.35,1.48v0.26c0,0.57,0.13,1.07,0.39,1.51
		c0.26,0.44,0.63,0.79,1.1,1.03c0.47,0.25,1.01,0.37,1.62,0.37c0.5,0,0.96-0.08,1.37-0.26c0.41-0.17,0.77-0.43,1.08-0.77l0.85,0.99
		c-0.38,0.45-0.86,0.79-1.43,1.02C278.11,81.83,277.48,81.94,276.77,81.94z"/>
	<path d="M285.03,81.94c-0.63,0-1.18-0.11-1.66-0.32c-0.47-0.21-0.84-0.51-1.1-0.89c-0.26-0.38-0.38-0.81-0.38-1.29
		c0-0.46,0.11-0.87,0.33-1.25s0.58-0.67,1.07-0.9s1.17-0.34,2.01-0.34h2.69v1.1h-2.62c-0.77,0-1.29,0.13-1.55,0.38
		s-0.4,0.57-0.4,0.93c0,0.42,0.17,0.75,0.5,1c0.33,0.25,0.79,0.38,1.38,0.38c0.58,0,1.08-0.13,1.51-0.38
		c0.43-0.26,0.74-0.63,0.94-1.12l0.3,1.06c-0.2,0.5-0.56,0.9-1.07,1.19C286.45,81.8,285.81,81.94,285.03,81.94z M287.81,81.85v-1.79
		l-0.08-0.34v-3.06c0-0.65-0.19-1.15-0.57-1.51c-0.38-0.36-0.95-0.54-1.7-0.54c-0.5,0-0.99,0.08-1.47,0.25
		c-0.48,0.17-0.89,0.39-1.22,0.66l-0.64-1.15c0.44-0.35,0.96-0.62,1.58-0.81s1.26-0.28,1.93-0.28c1.16,0,2.06,0.28,2.69,0.85
		c0.63,0.57,0.94,1.43,0.94,2.59v5.12H287.81z"/>
	<path d="M295.81,81.94c-0.86,0-1.63-0.19-2.31-0.56s-1.21-0.89-1.59-1.54c-0.38-0.65-0.58-1.4-0.58-2.24
		c0-0.84,0.19-1.59,0.58-2.24c0.38-0.65,0.91-1.16,1.59-1.53c0.68-0.37,1.45-0.55,2.31-0.55c0.77,0,1.45,0.15,2.06,0.46
		s1.07,0.75,1.4,1.35l-1.17,0.75c-0.28-0.42-0.62-0.72-1.02-0.92c-0.4-0.2-0.83-0.3-1.29-0.3c-0.55,0-1.05,0.12-1.49,0.37
		c-0.44,0.25-0.78,0.59-1.04,1.03c-0.26,0.44-0.38,0.97-0.38,1.58c0,0.61,0.13,1.14,0.38,1.58c0.26,0.45,0.6,0.79,1.04,1.04
		c0.44,0.25,0.93,0.37,1.49,0.37c0.46,0,0.89-0.1,1.29-0.3c0.4-0.2,0.74-0.5,1.02-0.92l1.17,0.74c-0.33,0.59-0.8,1.04-1.4,1.35
		C297.27,81.79,296.58,81.94,295.81,81.94z"/>
	<path d="M301.14,81.85V69.98h1.54v5.68l-0.3-0.61c0.28-0.55,0.7-0.99,1.28-1.3c0.58-0.31,1.25-0.46,2.02-0.46
		c0.69,0,1.3,0.13,1.83,0.4c0.53,0.27,0.94,0.67,1.24,1.22s0.45,1.23,0.45,2.06v4.88h-1.54v-4.7c0-0.82-0.2-1.44-0.6-1.86
		c-0.4-0.42-0.96-0.62-1.69-0.62c-0.54,0-1.02,0.11-1.42,0.32s-0.72,0.53-0.94,0.94c-0.22,0.42-0.33,0.93-0.33,1.55v4.37H301.14z"/>
	<path d="M315.12,74.63v-1.26h5.41v1.26H315.12z M319.25,81.94c-0.85,0-1.51-0.23-1.98-0.69s-0.7-1.11-0.7-1.97v-7.78h1.54v7.71
		c0,0.46,0.11,0.81,0.34,1.06s0.56,0.37,0.98,0.37c0.48,0,0.88-0.13,1.2-0.4l0.48,1.1c-0.23,0.2-0.51,0.35-0.84,0.45
		C319.94,81.9,319.6,81.94,319.25,81.94z"/>
	<path d="M322.96,81.85V69.98h1.54v5.68l-0.3-0.61c0.28-0.55,0.7-0.99,1.28-1.3c0.58-0.31,1.25-0.46,2.02-0.46
		c0.69,0,1.3,0.13,1.83,0.4c0.53,0.27,0.94,0.67,1.24,1.22s0.45,1.23,0.45,2.06v4.88h-1.54v-4.7c0-0.82-0.2-1.44-0.6-1.86
		c-0.4-0.42-0.96-0.62-1.69-0.62c-0.54,0-1.02,0.11-1.42,0.32s-0.72,0.53-0.94,0.94c-0.22,0.42-0.33,0.93-0.33,1.55v4.37H322.96z"/>
	<path d="M337.64,81.94c-0.91,0-1.7-0.19-2.39-0.56c-0.69-0.37-1.22-0.89-1.6-1.54c-0.38-0.65-0.57-1.4-0.57-2.24
		c0-0.84,0.18-1.59,0.55-2.24c0.37-0.65,0.88-1.16,1.52-1.53c0.65-0.37,1.37-0.55,2.18-0.55c0.82,0,1.55,0.18,2.18,0.54
		c0.63,0.36,1.12,0.87,1.48,1.53c0.36,0.66,0.54,1.42,0.54,2.3c0,0.06,0,0.14-0.01,0.22c-0.01,0.09-0.01,0.17-0.02,0.24h-7.22v-1.1
		h6.42l-0.62,0.38c0.01-0.54-0.1-1.03-0.34-1.46c-0.24-0.43-0.56-0.76-0.97-1c-0.41-0.24-0.89-0.36-1.43-0.36
		c-0.53,0-1.01,0.12-1.42,0.36c-0.42,0.24-0.74,0.58-0.98,1.01c-0.24,0.43-0.35,0.93-0.35,1.48v0.26c0,0.57,0.13,1.07,0.39,1.51
		c0.26,0.44,0.63,0.79,1.1,1.03c0.47,0.25,1.01,0.37,1.62,0.37c0.5,0,0.96-0.08,1.37-0.26c0.41-0.17,0.77-0.43,1.08-0.77l0.85,0.99
		c-0.38,0.45-0.86,0.79-1.43,1.02C338.98,81.83,338.34,81.94,337.64,81.94z"/>
	<path d="M348.18,81.85v-11.2h4.37c0.98,0,1.82,0.15,2.51,0.46s1.23,0.76,1.6,1.34c0.37,0.59,0.56,1.29,0.56,2.1
		s-0.19,1.51-0.56,2.09c-0.37,0.58-0.91,1.03-1.6,1.34c-0.69,0.31-1.53,0.47-2.51,0.47h-3.49l0.72-0.75v4.14H348.18z M349.78,77.86
		l-0.72-0.8h3.44c1.02,0,1.8-0.22,2.33-0.66s0.79-1.06,0.79-1.86c0-0.8-0.26-1.42-0.79-1.86s-1.3-0.66-2.33-0.66h-3.44l0.72-0.8
		V77.86z"/>
	<path d="M363.09,81.94c-0.91,0-1.7-0.19-2.39-0.56c-0.69-0.37-1.22-0.89-1.6-1.54c-0.38-0.65-0.57-1.4-0.57-2.24
		c0-0.84,0.18-1.59,0.55-2.24c0.37-0.65,0.88-1.16,1.52-1.53c0.65-0.37,1.37-0.55,2.18-0.55c0.82,0,1.55,0.18,2.18,0.54
		c0.63,0.36,1.12,0.87,1.48,1.53c0.36,0.66,0.54,1.42,0.54,2.3c0,0.06,0,0.14-0.01,0.22c-0.01,0.09-0.01,0.17-0.02,0.24h-7.22v-1.1
		h6.42l-0.62,0.38c0.01-0.54-0.1-1.03-0.34-1.46c-0.24-0.43-0.56-0.76-0.97-1c-0.41-0.24-0.89-0.36-1.43-0.36
		c-0.53,0-1.01,0.12-1.42,0.36c-0.42,0.24-0.74,0.58-0.98,1.01c-0.24,0.43-0.35,0.93-0.35,1.48v0.26c0,0.57,0.13,1.07,0.39,1.51
		c0.26,0.44,0.63,0.79,1.1,1.03c0.47,0.25,1.01,0.37,1.62,0.37c0.5,0,0.96-0.08,1.37-0.26c0.41-0.17,0.77-0.43,1.08-0.77l0.85,0.99
		c-0.38,0.45-0.86,0.79-1.43,1.02C364.43,81.83,363.79,81.94,363.09,81.94z"/>
	<path d="M371.35,81.94c-0.63,0-1.18-0.11-1.66-0.32c-0.47-0.21-0.84-0.51-1.1-0.89c-0.26-0.38-0.38-0.81-0.38-1.29
		c0-0.46,0.11-0.87,0.33-1.25s0.58-0.67,1.07-0.9s1.17-0.34,2.01-0.34h2.69v1.1h-2.62c-0.77,0-1.29,0.13-1.55,0.38
		s-0.4,0.57-0.4,0.93c0,0.42,0.17,0.75,0.5,1c0.33,0.25,0.79,0.38,1.38,0.38c0.58,0,1.08-0.13,1.51-0.38
		c0.43-0.26,0.74-0.63,0.94-1.12l0.3,1.06c-0.2,0.5-0.56,0.9-1.07,1.19C372.77,81.8,372.13,81.94,371.35,81.94z M374.13,81.85v-1.79
		l-0.08-0.34v-3.06c0-0.65-0.19-1.15-0.57-1.51c-0.38-0.36-0.95-0.54-1.7-0.54c-0.5,0-0.99,0.08-1.47,0.25
		c-0.48,0.17-0.89,0.39-1.22,0.66l-0.64-1.15c0.44-0.35,0.96-0.62,1.58-0.81s1.26-0.28,1.93-0.28c1.16,0,2.06,0.28,2.69,0.85
		c0.63,0.57,0.94,1.43,0.94,2.59v5.12H374.13z"/>
	<path d="M378.44,81.85V69.98h1.54v11.87H378.44z M379.68,79.8l0.03-1.97l4.88-4.46h1.86l-3.74,3.68l-0.83,0.7L379.68,79.8z
		 M384.91,81.85l-3.33-4.13l0.99-1.23l4.22,5.36H384.91z"/>
	<path d="M388.8,81.94c-0.3,0-0.55-0.1-0.77-0.31c-0.21-0.21-0.32-0.47-0.32-0.79c0-0.32,0.11-0.58,0.32-0.78
		c0.21-0.2,0.47-0.3,0.77-0.3c0.29,0,0.54,0.1,0.74,0.3s0.31,0.46,0.31,0.78c0,0.32-0.1,0.58-0.31,0.79S389.09,81.94,388.8,81.94z"
		/>
</g>
</svg>
