<?xml version="1.0" standalone="no"?>
<!DOCTYPE svg PUBLIC "-//W3C//DTD SVG 20010904//EN"
 "http://www.w3.org/TR/2001/REC-SVG-20010904/DTD/svg10.dtd">
<svg version="1.0" xmlns="http://www.w3.org/2000/svg"
 width="1024.000000pt" height="1024.000000pt" viewBox="0 0 1024.000000 1024.000000"
 preserveAspectRatio="xMidYMid meet">

<g transform="translate(0.000000,1024.000000) scale(0.100000,-0.100000)"
fill="#000000" stroke="none">
<path d="M1500 6223 c-184 -31 -351 -175 -401 -347 -5 -17 -41 -294 -79 -616
-39 -322 -84 -697 -101 -834 -16 -137 -28 -251 -25 -253 2 -2 224 21 493 51
268 31 569 66 668 77 99 11 199 25 222 30 209 45 382 218 422 419 6 30 36 269
66 530 66 561 103 873 109 918 l5 32 -677 -1 c-372 -1 -688 -4 -702 -6z m1006
-425 c-9 -58 -46 -136 -85 -181 -18 -20 -63 -51 -99 -69 l-67 -33 -408 -3
-409 -3 7 73 c9 103 30 169 62 200 60 57 59 57 552 58 l454 0 -7 -42z m-396
-600 c0 -25 -59 -115 -95 -146 -69 -61 -179 -102 -275 -102 -44 0 -44 0 -55
-105 -22 -218 -139 -368 -315 -406 -28 -6 -53 -9 -56 -6 -6 6 54 535 67 582
24 90 90 152 189 179 74 20 540 23 540 4z"/>
<path d="M3290 5440 l0 -480 100 0 100 0 0 193 0 192 185 -2 185 -1 0 89 0 89
-185 0 -185 0 0 110 0 110 204 0 205 0 3 86 c2 47 1 88 -1 90 -2 2 -141 4
-308 4 l-303 0 0 -480z"/>
<path d="M4050 5577 c0 -286 3 -352 16 -397 29 -98 89 -164 189 -206 59 -25
245 -31 317 -10 72 21 146 71 180 122 53 79 58 126 58 496 l0 338 -100 0 -100
0 0 -329 c0 -349 -3 -375 -48 -424 -67 -71 -226 -57 -286 26 -20 27 -21 45
-26 375 l-5 347 -97 3 -98 3 0 -344z"/>
<path d="M4950 5830 l0 -90 135 0 135 0 0 -390 0 -390 95 0 95 0 0 390 0 390
135 0 135 0 0 90 0 90 -365 0 -365 0 0 -90z"/>
<path d="M5840 5441 l0 -481 100 0 100 0 0 165 0 165 123 0 c235 0 340 63 383
230 42 166 -16 301 -160 366 -61 28 -63 28 -303 32 l-243 4 0 -481z m440 295
c102 -36 108 -209 10 -258 -27 -14 -60 -18 -142 -18 l-108 0 0 145 0 145 103
-1 c56 0 118 -6 137 -13z"/>
<path d="M6710 5915 c0 -3 0 -218 0 -477 l0 -473 310 -3 310 -2 0 90 0 91
-215 -3 -215 -3 0 118 0 117 195 0 195 0 0 85 0 85 -195 0 -195 0 0 100 0 100
215 0 215 0 0 90 0 90 -310 0 c-170 0 -310 -2 -310 -5z"/>
<path d="M7710 5668 c-51 -139 -131 -354 -177 -477 -46 -123 -83 -225 -83
-227 0 -2 46 -4 103 -4 l102 0 23 68 c13 37 30 86 39 110 l16 42 186 -2 185
-3 38 -104 c21 -57 39 -106 41 -108 3 -2 49 -2 104 -1 l99 3 -168 455 c-92
250 -172 465 -177 476 -9 20 -18 22 -123 23 l-114 2 -94 -253z m220 21 c0 -6
25 -81 55 -168 30 -87 55 -161 55 -164 0 -4 -56 -7 -123 -7 l-124 0 61 175
c53 153 76 202 76 164z"/>
<path d="M8509 5916 c-2 -2 -3 -218 -1 -480 l2 -476 95 0 95 0 0 133 0 133 55
67 c31 37 59 65 64 63 4 -3 61 -93 126 -201 l118 -195 114 0 c89 0 113 3 107
13 -4 6 -81 130 -171 275 -142 229 -162 265 -151 281 7 9 79 99 161 198 81
100 147 184 147 187 0 3 -49 6 -108 6 l-108 0 -175 -217 -174 -218 -3 218 -2
217 -94 0 c-51 0 -95 -2 -97 -4z"/>
<path d="M4114 4719 c-3 -6 0 -17 7 -25 18 -17 44 -2 36 20 -7 18 -33 21 -43
5z"/>
<path d="M5857 4716 c-7 -18 1 -26 25 -26 13 0 18 6 16 17 -4 22 -34 29 -41 9z"/>
<path d="M3290 4580 c0 -133 1 -140 20 -140 18 0 20 7 20 56 0 48 2 55 18 50
28 -9 96 11 115 35 9 12 17 38 17 59 0 58 -33 80 -121 80 l-69 0 0 -140z m138
98 c17 -17 15 -73 -3 -88 -8 -6 -32 -14 -55 -17 l-40 -6 0 62 0 61 43 0 c24 0
48 -5 55 -12z"/>
<path d="M4022 4675 c3 -37 1 -44 -12 -39 -40 18 -68 15 -96 -9 -26 -23 -29
-31 -29 -87 0 -53 3 -65 24 -81 28 -23 74 -25 91 -4 7 8 16 15 21 15 5 0 6 -7
3 -15 -4 -10 0 -15 15 -15 20 0 21 4 21 140 0 136 -1 140 -21 140 -19 0 -21
-5 -17 -45z m-18 -71 c21 -21 21 -92 -1 -116 -20 -22 -56 -23 -74 -2 -20 24
-17 89 5 113 23 25 49 27 70 5z"/>
<path d="M4670 4580 c0 -135 1 -140 21 -140 19 0 21 5 17 52 -3 59 -12 53 80
57 36 2 72 44 72 86 0 25 -8 44 -25 60 -21 22 -33 25 -95 25 l-70 0 0 -140z
m138 98 c17 -17 15 -73 -4 -88 -8 -8 -33 -14 -56 -14 l-40 -1 -1 58 -2 57 46
0 c25 0 50 -5 57 -12z"/>
<path d="M6170 4580 c0 -127 2 -140 18 -140 15 0 17 13 17 140 0 127 -2 140
-17 140 -16 0 -18 -13 -18 -140z"/>
<path d="M6470 4580 c0 -133 1 -140 20 -140 18 0 20 7 20 55 0 53 1 55 28 55
23 0 32 -9 57 -55 22 -42 35 -55 52 -55 22 0 22 1 -11 56 l-34 56 26 23 c21
18 27 32 27 65 0 61 -27 80 -116 80 l-69 0 0 -140z m134 94 c39 -38 6 -94 -56
-94 l-38 0 0 55 0 55 39 0 c23 0 46 -7 55 -16z"/>
<path d="M7350 4580 c0 -118 2 -140 15 -140 12 0 15 13 15 59 0 76 13 109 45
117 44 11 55 -9 55 -97 0 -72 2 -79 20 -79 18 0 20 7 20 73 0 83 -14 118 -54
132 -21 7 -34 6 -57 -7 l-29 -17 0 49 c0 38 -4 50 -15 50 -13 0 -15 -22 -15
-140z"/>
<path d="M7830 4580 c0 -118 2 -140 15 -140 12 0 15 14 15 70 0 57 4 74 20 90
48 48 80 14 80 -86 0 -64 2 -74 18 -74 15 0 17 9 12 91 -4 75 -8 93 -24 105
-26 18 -56 18 -84 -2 -22 -15 -22 -15 -22 35 0 39 -4 51 -15 51 -13 0 -15 -22
-15 -140z"/>
<path d="M8370 4580 c0 -135 1 -140 21 -140 18 0 20 5 18 52 -3 49 -2 52 21
53 69 3 83 7 105 30 17 16 25 35 25 60 0 25 -8 44 -25 60 -21 22 -33 25 -95
25 l-70 0 0 -140z m131 100 c23 -13 26 -72 4 -90 -8 -6 -32 -14 -54 -17 l-39
-5 -4 61 -3 61 38 0 c21 0 47 -5 58 -10z"/>
<path d="M9025 4580 c0 -125 2 -140 17 -140 13 0 18 11 20 47 2 25 8 48 13 50
6 2 24 -19 40 -47 21 -36 35 -50 52 -50 21 0 20 3 -17 60 -22 32 -40 62 -40
67 0 4 17 24 37 45 30 31 34 38 18 38 -11 0 -39 -19 -62 -42 l-43 -42 0 77 c0
67 -2 77 -17 77 -16 0 -18 -13 -18 -140z"/>
<path d="M5153 4699 c-7 -7 -13 -21 -13 -31 0 -12 -7 -18 -21 -18 -14 0 -19
-5 -17 -17 2 -11 11 -17 21 -15 15 3 17 -7 17 -76 0 -88 8 -102 57 -102 24 0
31 4 27 14 -3 8 -15 16 -27 18 -20 3 -22 10 -25 77 l-3 74 26 -5 c19 -4 25 -1
25 13 0 13 -7 19 -24 19 -20 0 -25 6 -28 31 -2 24 -5 28 -15 18z"/>
<path d="M5743 4699 c-7 -7 -13 -21 -13 -31 0 -11 -7 -18 -20 -18 -14 0 -20
-7 -20 -21 0 -16 4 -19 20 -14 19 6 20 2 20 -72 0 -89 8 -103 57 -103 24 0 31
4 27 14 -3 8 -15 16 -27 18 -20 3 -22 10 -25 76 l-3 74 28 -4 c20 -2 28 1 28
12 0 9 -11 16 -27 18 -22 3 -27 9 -30 33 -2 24 -5 28 -15 18z"/>
<path d="M7703 4699 c-7 -7 -13 -21 -13 -30 0 -9 -9 -19 -21 -22 -24 -7 -20
-33 5 -29 14 2 16 -8 16 -68 0 -90 10 -110 55 -110 26 0 33 3 29 15 -4 8 -15
15 -25 15 -23 0 -31 29 -27 96 3 45 5 49 28 49 35 0 33 29 -2 33 -22 3 -27 9
-30 33 -2 24 -5 28 -15 18z"/>
<path d="M4447 4693 c-4 -3 -7 -15 -7 -25 0 -11 -7 -18 -20 -18 -14 0 -20 -7
-20 -21 0 -16 4 -19 20 -14 19 6 20 2 20 -72 0 -87 8 -103 52 -103 34 0 39 27
6 32 -21 3 -23 9 -26 77 l-3 74 26 -5 c19 -4 25 -1 25 13 0 14 -7 19 -25 19
-20 0 -25 5 -25 25 0 24 -10 32 -23 18z"/>
<path d="M3530 4543 c0 -85 3 -103 15 -103 12 0 15 13 15 58 0 68 16 104 50
112 30 7 41 40 13 40 -10 0 -29 -7 -41 -16 -18 -12 -22 -13 -22 -1 0 7 -7 14
-15 14 -12 0 -15 -18 -15 -104z"/>
<path d="M3708 4635 c-51 -28 -58 -125 -12 -176 30 -33 134 -20 134 16 0 19
-17 19 -36 0 -22 -21 -41 -19 -69 10 -44 43 -34 55 45 55 67 0 70 1 70 24 0
38 -10 56 -41 71 -35 18 -56 18 -91 0z m90 -42 c14 -23 14 -23 -42 -23 -61 0
-65 4 -39 32 22 24 61 20 81 -9z"/>
<path d="M4120 4545 c0 -87 3 -105 15 -105 12 0 15 18 15 105 0 87 -3 105 -15
105 -12 0 -15 -18 -15 -105z"/>
<path d="M4248 4635 c-55 -31 -59 -142 -5 -180 31 -22 93 -19 117 5 39 39 17
55 -27 20 -33 -26 -39 -25 -68 5 -32 31 -34 86 -5 115 25 25 48 25 75 0 13
-12 25 -16 34 -11 11 7 9 14 -12 35 -29 29 -67 33 -109 11z"/>
<path d="M4919 4621 c-33 -34 -39 -92 -14 -140 16 -32 33 -41 79 -41 43 0 72
23 86 66 35 106 -76 190 -151 115z m101 -21 c42 -42 15 -130 -40 -130 -55 0
-76 85 -33 133 21 23 48 22 73 -3z"/>
<path d="M5293 4626 c-24 -21 -28 -31 -28 -79 0 -45 5 -60 24 -81 31 -33 98
-37 126 -6 25 28 11 38 -24 17 -45 -27 -91 -2 -91 49 0 11 16 14 71 14 l72 0
-7 33 c-8 40 -48 77 -86 77 -16 0 -41 -11 -57 -24z m91 -22 c26 -26 18 -34
-34 -34 -54 0 -59 4 -33 32 20 22 46 23 67 2z"/>
<path d="M5490 4545 c0 -87 3 -105 15 -105 12 0 15 14 15 70 0 57 4 74 20 90
48 48 80 14 80 -86 0 -69 1 -74 21 -74 21 0 22 3 16 88 -5 73 -10 90 -28 105
-26 21 -58 22 -87 1 -20 -14 -22 -14 -22 0 0 9 -7 16 -15 16 -12 0 -15 -18
-15 -105z"/>
<path d="M5847 4644 c-11 -11 -8 -36 3 -29 6 4 10 -27 10 -84 0 -85 1 -91 20
-91 20 0 21 5 18 103 -3 94 -5 102 -23 105 -12 2 -24 0 -28 -4z"/>
<path d="M6000 4643 c-17 -6 -40 -32 -40 -45 0 -14 27 -9 40 7 23 28 80 13 80
-21 0 -6 -19 -14 -42 -18 -81 -13 -108 -52 -72 -104 17 -25 81 -31 102 -10 9
9 12 9 12 0 0 -7 9 -12 20 -12 18 0 20 6 17 86 -2 77 -5 88 -26 105 -22 18
-60 23 -91 12z m80 -128 c0 -34 -41 -61 -69 -45 -44 23 -16 69 42 70 22 0 27
-4 27 -25z"/>
<path d="M6745 4638 c-35 -19 -45 -40 -45 -95 0 -44 5 -59 25 -78 32 -32 103
-35 130 -5 16 18 16 20 2 26 -9 3 -24 -1 -32 -10 -23 -22 -42 -20 -70 9 -44
43 -34 55 45 55 67 0 70 1 70 24 0 38 -10 56 -41 71 -33 18 -57 18 -84 3z m83
-45 c14 -23 14 -23 -42 -23 -53 0 -56 1 -46 19 19 37 64 39 88 4z"/>
<path d="M6954 4640 c-21 -8 -39 -38 -30 -48 6 -5 23 2 47 19 23 17 69 3 69
-21 0 -15 -10 -20 -46 -26 -74 -11 -103 -53 -68 -102 17 -25 81 -31 102 -10 9
9 12 9 12 0 0 -7 9 -12 20 -12 18 0 20 7 20 80 0 73 -3 83 -25 105 -25 26 -62
31 -101 15z m86 -123 c0 -13 -9 -32 -20 -42 -17 -15 -24 -16 -45 -7 -49 22
-23 71 38 72 22 0 27 -4 27 -23z"/>
<path d="M7168 4635 c-52 -29 -60 -124 -15 -172 29 -32 95 -32 125 0 12 13 22
26 22 30 0 13 -38 7 -43 -7 -9 -23 -45 -25 -72 -4 -32 25 -35 88 -5 118 25 25
48 25 75 0 29 -27 53 -12 28 19 -23 28 -80 36 -115 16z"/>
<path d="M8073 4626 c-24 -21 -28 -31 -28 -79 0 -74 29 -107 91 -107 40 0 74
19 74 41 0 14 -18 11 -45 -7 -19 -13 -28 -13 -47 -3 -28 14 -38 28 -38 52 0
15 10 17 70 17 69 0 70 1 70 26 0 15 -12 38 -29 55 -37 36 -79 38 -118 5z m88
-16 c10 -6 19 -18 19 -28 0 -14 -8 -16 -50 -14 -55 4 -58 7 -33 34 18 20 36
23 64 8z"/>
<path d="M8625 4628 c-45 -40 -46 -127 -3 -168 29 -27 98 -27 122 -1 23 25 4
37 -27 16 -40 -26 -87 2 -87 51 0 11 16 14 71 14 l72 0 -7 33 c-8 40 -48 77
-86 77 -16 0 -41 -10 -55 -22z m89 -24 c29 -29 19 -39 -34 -36 -55 4 -58 7
-33 34 20 22 46 23 67 2z"/>
<path d="M8836 4629 c-14 -11 -26 -25 -26 -30 0 -15 37 -10 44 6 8 22 63 19
76 -4 15 -29 14 -29 -37 -37 -56 -8 -83 -28 -83 -61 0 -44 17 -63 58 -63 21 0
44 6 51 13 11 10 14 10 18 0 3 -7 11 -13 19 -13 11 0 14 18 14 83 0 88 -3 98
-37 116 -33 17 -67 13 -97 -10z m104 -109 c0 -21 -33 -60 -51 -60 -22 0 -49
22 -49 40 0 24 26 39 68 40 25 0 32 -4 32 -20z"/>
<path d="M6265 4471 c-9 -16 3 -31 26 -31 14 0 19 6 17 17 -4 20 -33 29 -43
14z"/>
<path d="M9237 4474 c-16 -16 -6 -35 16 -32 12 2 22 10 22 18 0 16 -26 25 -38
14z"/>
</g>
</svg>
